<?xml version="1.0" encoding="iso-8859-1"?>
<!-- Generator: Adobe Illustrator 19.0.0, SVG Export Plug-In . SVG Version: 6.00 Build 0)  -->
<svg xmlns="http://www.w3.org/2000/svg" xmlns:xlink="http://www.w3.org/1999/xlink" version="1.1" id="Capa_1" x="0px" y="0px" viewBox="0 0 511.999 511.999" style="enable-background:new 0 0 511.999 511.999;" xml:space="preserve" width="512px" height="512px">
<g>
	<g>
		<path d="M236.88,302.612c-1.86-1.86-4.44-2.93-7.07-2.93c-2.64,0-5.21,1.07-7.08,2.93c-1.86,1.86-2.92,4.44-2.92,7.07    s1.06,5.21,2.92,7.07c1.87,1.86,4.44,2.93,7.08,2.93c2.63,0,5.21-1.07,7.07-2.93c1.86-1.86,2.93-4.44,2.93-7.07    C239.809,307.041,238.74,304.471,236.88,302.612z" fill="#FFFFFF"/>
	</g>
</g>
<g>
	<g>
		<path d="M282.194,210.992c-5.523,0-10,4.477-10,10v1.763c0,5.523,4.477,10,10,10s10-4.477,10-10v-1.763    C292.194,215.469,287.717,210.992,282.194,210.992z" fill="#FFFFFF"/>
	</g>
</g>
<g>
	<g>
		<path d="M511.547,323.521c-1.375-7.895-5.742-14.781-12.296-19.391l-53.998-37.98c-5.08-3.574-11.048-5.463-17.26-5.463h-31.299    c-3.132-11.914-7.758-23.342-13.718-34.027l30.077-30.078c5.666-5.666,8.786-13.2,8.786-21.212v-63.124l23.066-23.065    c11.697-11.697,11.697-30.729,0-42.427s-30.729-11.697-42.427,0l-31.853,31.853c-5.666,5.667-8.786,13.201-8.786,21.212v63.124    l-18.329,18.33c-3.323-2.511-6.767-4.889-10.326-7.124v-7.144c0-26.806-13.743-50.456-34.546-64.297V67.749    c0-17.154,7.397-33.479,20.293-44.791l6.197-5.435c4.152-3.641,4.566-9.959,0.924-14.112c-3.642-4.152-9.96-4.566-14.112-0.924    l-6.197,5.435c-15.413,13.518-24.937,32.398-26.773,52.634C273.467,54,265.213,49.821,256,49.821S238.534,54,233.026,60.557    c-1.836-20.237-11.362-39.116-26.773-52.634l-6.197-5.435c-4.153-3.643-10.471-3.228-14.112,0.924    c-3.642,4.152-3.228,10.471,0.924,14.112l6.197,5.435c12.897,11.312,20.294,27.637,20.294,44.791v34.959    c-20.803,13.842-34.546,37.491-34.546,64.297v7.144c-3.56,2.235-7.004,4.613-10.327,7.124l-18.33-18.331V99.821    c0-8.012-3.12-15.546-8.786-21.213l-31.853-31.853c-11.697-11.697-30.729-11.697-42.427,0c-11.698,11.697-11.697,30.729,0,42.427    l23.066,23.065v63.124c0,8.013,3.121,15.547,8.786,21.211l30.078,30.079c-5.96,10.685-10.585,22.112-13.718,34.026H84.005    c-6.211,0-12.18,1.889-17.259,5.462l-53.999,37.98c-6.555,4.61-10.922,11.497-12.296,19.391    c-1.375,7.895,0.407,15.853,5.017,22.405c5.612,7.979,14.792,12.743,24.555,12.743c6.197,0,12.159-1.89,17.241-5.464    l46.234-32.518h18.887c3.312,20.514,10.945,39.749,22.017,56.624l-17.539,18.846c-4.231,4.547-6.914,10.203-7.758,16.355    l-8.985,65.403c-1.091,7.939,0.975,15.827,5.818,22.211c4.842,6.385,11.882,10.501,19.818,11.591    c1.359,0.187,2.719,0.279,4.072,0.279c8.27,0,16.269-3.43,21.984-9.572c4.222-4.537,6.9-10.188,7.746-16.344l7.693-55.999    l9.673-10.394c15.175,9.87,32.364,17.021,50.952,20.674c0.641,0.125,1.287,0.188,1.929,0.188c2.297,0,4.548-0.792,6.353-2.277    c2.309-1.899,3.647-4.732,3.647-7.723v-18.98h32.388v18.98c0,2.99,1.338,5.823,3.647,7.723c1.805,1.485,4.055,2.277,6.353,2.277    c0.642,0,1.288-0.062,1.929-0.188c18.588-3.653,35.777-10.804,50.951-20.674l9.673,10.393l7.692,55.998    c0.846,6.156,3.524,11.808,7.746,16.344c5.717,6.143,13.715,9.573,21.984,9.573c1.353,0,2.713-0.092,4.071-0.278    c7.939-1.09,14.979-5.206,19.82-11.591c4.843-6.385,6.909-14.273,5.818-22.211l-8.984-65.402    c-0.845-6.153-3.527-11.81-7.759-16.357l-17.538-18.845c11.074-16.875,18.707-36.11,22.018-56.625h18.885l46.234,32.519    c5.083,3.574,11.044,5.464,17.241,5.464c9.764,0,18.944-4.764,24.554-12.742C511.14,339.374,512.922,331.416,511.547,323.521z     M110.561,300.688H90.334c-2.06,0-4.068,0.636-5.753,1.821L35.76,336.847c-1.696,1.193-3.679,1.823-5.735,1.823    c-3.261,0-6.325-1.588-8.197-4.25c-1.537-2.184-2.13-4.836-1.672-7.467c0.458-2.631,1.914-4.927,4.099-6.464l54-37.981    c1.693-1.191,3.682-1.82,5.752-1.82h27.522c-0.651,5.554-1.003,11.17-1.003,16.834    C110.526,298.58,110.538,299.635,110.561,300.688z M378.913,174.158c1.875-1.875,2.929-4.419,2.929-7.071V99.821    c0-2.671,1.041-5.183,2.929-7.071l31.853-31.853c3.898-3.899,10.244-3.899,14.143,0c3.899,3.899,3.899,10.244,0,14.143    l-25.995,25.994c-1.875,1.875-2.929,4.419-2.929,7.071v67.267c0,2.671-1.04,5.182-2.929,7.071l-27.104,27.105    c-4.029-5.318-8.42-10.377-13.165-15.12L378.913,174.158z M256,69.82c5.514,0,10,4.486,10,10s-4.486,10-10,10s-10-4.486-10-10    S250.486,69.82,256,69.82z M198.813,167.007c0-31.533,25.654-57.187,57.188-57.187s57.188,25.654,57.188,57.187v2.798H198.813    V167.007z M113.087,182.442c-1.889-1.888-2.929-4.399-2.929-7.07v-67.267c0-2.652-1.054-5.196-2.929-7.071L81.234,75.039    c-3.899-3.899-3.899-10.244,0-14.143c3.898-3.899,10.244-3.899,14.143,0l31.852,31.852c1.889,1.889,2.929,4.401,2.929,7.072    v67.267c0,2.652,1.054,5.196,2.929,7.071l20.271,20.27c-4.745,4.743-9.135,9.801-13.165,15.12L113.087,182.442z M150.457,418.774    c-1.403,1.507-2.306,3.411-2.586,5.452l-8.124,59.133c-0.282,2.053-1.171,3.935-2.572,5.44c-2.222,2.388-5.472,3.549-8.696,3.105    c-2.646-0.363-4.992-1.735-6.605-3.863c-1.614-2.128-2.303-4.758-1.939-7.404l8.985-65.405c0.281-2.05,1.175-3.936,2.585-5.451    l15.184-16.316c4.394,5.018,9.126,9.744,14.175,14.127L150.457,418.774z M380.493,409.781c1.411,1.516,2.305,3.401,2.586,5.453    l8.985,65.403c0.363,2.646-0.325,5.276-1.939,7.404s-3.959,3.5-6.607,3.863c-3.222,0.441-6.473-0.718-8.694-3.106    c-1.401-1.505-2.291-3.386-2.573-5.44l-8.124-59.133c-0.28-2.041-1.184-3.944-2.586-5.452l-10.406-11.181    c5.049-4.383,9.781-9.108,14.175-14.127L380.493,409.781z M292.192,417.779V265.501c0.002-5.523-4.475-10-9.998-10    s-10,4.477-10,10l-0.001,126.069h-32.388v-45.771c0-5.523-4.477-10-10-10c-5.523,0-10,4.477-10,10v71.978    c-52.402-15.773-89.283-64.527-89.283-120.257c0-44.044,23.32-85.067,61.02-107.716h28.26v80.883c0,5.523,4.477,10,10,10    c5.523,0,10-4.477,10-10v-80.883h80.65c37.7,22.649,61.02,63.672,61.02,107.716C381.474,353.249,344.594,402.004,292.192,417.779z     M490.171,334.421c-1.871,2.661-4.935,4.249-8.196,4.249c-2.056,0-4.04-0.63-5.735-1.823l-48.822-34.339    c-1.685-1.185-3.693-1.821-5.753-1.821h-20.225c0.023-1.053,0.035-2.108,0.035-3.166c0-5.664-0.352-11.28-1.003-16.834h27.521    c2.07,0,4.059,0.629,5.753,1.821l53.999,37.981c2.185,1.537,3.641,3.832,4.099,6.463    C492.302,329.584,491.708,332.236,490.171,334.421z" fill="#FFFFFF"/>
	</g>
</g>
<g>
</g>
<g>
</g>
<g>
</g>
<g>
</g>
<g>
</g>
<g>
</g>
<g>
</g>
<g>
</g>
<g>
</g>
<g>
</g>
<g>
</g>
<g>
</g>
<g>
</g>
<g>
</g>
<g>
</g>
</svg>
